<?xml version="1.0" encoding="UTF-8"?> <svg xmlns="http://www.w3.org/2000/svg" width="100" height="22" viewBox="0 0 100 22" fill="none"> <path d="M24.8496 16.859H27.8694V11.6967H32.0026V16.859H35.0056V4.2906H32.0026V9.08178H27.8694V4.2906H24.8496V16.859Z" fill="white"></path> <path d="M41.1365 10.5832C41.457 9.33483 41.7944 7.86711 42.0981 6.55123H42.1656C42.503 7.83337 42.8235 9.33483 43.1609 10.5832L43.4308 11.6461H40.8665L41.1365 10.5832ZM36.4971 16.859H39.5675L40.293 13.9742H44.0044L44.7298 16.859H47.9015L44.0044 4.2906H40.3942L36.4971 16.859Z" fill="white"></path> <path d="M49.3887 16.859H54.1293C56.8623 16.859 59.0385 15.7118 59.0385 13.1475C59.0385 11.4774 58.0769 10.5326 56.8116 10.1952V10.1277C57.8239 9.73972 58.4481 8.52506 58.4481 7.41162C58.4481 4.99916 56.373 4.2906 53.775 4.2906H49.3887V16.859ZM52.4085 9.28422V6.60184H53.6569C54.9222 6.60184 55.5126 6.97299 55.5126 7.86711C55.5126 8.7275 54.939 9.28422 53.6569 9.28422H52.4085ZM52.4085 14.5478V11.4942H53.91C55.3777 11.4942 56.1031 11.916 56.1031 12.9451C56.1031 14.0248 55.3608 14.5478 53.91 14.5478H52.4085Z" fill="white"></path> <path d="M64.8057 17.0952C67.8424 17.0952 69.5969 15.2563 69.5969 13.1644C69.5969 11.393 68.669 10.3471 67.1169 9.72285L65.548 9.09865C64.4345 8.66002 63.6585 8.39009 63.6585 7.68154C63.6585 7.0236 64.2152 6.65245 65.1431 6.65245C66.1216 6.65245 66.8976 6.98986 67.7243 7.61406L69.2257 5.72458C68.1291 4.62801 66.5939 4.07129 65.1431 4.07129C62.4776 4.07129 60.5881 5.75832 60.5881 7.86711C60.5881 9.68911 61.8196 10.7857 63.1355 11.3087L64.7382 11.9835C65.8179 12.439 66.5096 12.6752 66.5096 13.4006C66.5096 14.0754 65.9866 14.4972 64.8732 14.4972C63.8778 14.4972 62.7138 13.9742 61.8365 13.215L60.1157 15.2901C61.4147 16.4879 63.1693 17.0952 64.8057 17.0952Z" fill="white"></path> <path d="M71.8519 16.859H74.8717V4.2906L71.8519 6.55123V16.859Z" fill="white"></path> <path d="M77.9187 16.859H81.6976C85.3585 16.859 87.8891 14.8852 87.8891 10.5158C87.8891 6.14634 85.3585 4.2906 81.5289 4.2906H77.9187V16.859ZM80.9385 14.4297V6.70306H81.3434C83.3678 6.70306 84.8018 7.52971 84.8018 10.5158C84.8018 13.5018 83.3678 14.4297 81.3434 14.4297H80.9385Z" fill="white"></path> <path d="M93.2335 10.5832C93.5541 9.33483 93.8915 7.86711 94.1951 6.55123H94.2626C94.6 7.83337 94.9206 9.33483 95.258 10.5832L95.5279 11.6461H92.9636L93.2335 10.5832ZM88.5942 16.859H91.6646L92.39 13.9742H96.1015L96.8269 16.859H99.9985L96.1015 4.2906H92.4912L88.5942 16.859Z" fill="white"></path> <path d="M15.1001 10.0668L11.3906 11.8788V16.4648L15.1001 14.6426V10.0668Z" fill="white"></path> <path d="M0 5.01103L9.95698 0L11.7141 0.976175L1.81202 6.04008V14.6975L3.51423 15.6839V12.7848L5.23474 13.7915V19.1269L0 16.0743V5.01103Z" fill="white"></path> <path fill-rule="evenodd" clip-rule="evenodd" d="M3.42383 10.5386L5.33652 11.6774V8.15405L8.75923 6.4427L10.5824 7.47988L7.13329 9.237V20.2352L9.34595 21.5368L18.9267 16.6102V8.15405L17.2153 8.9594V15.5028L9.34595 19.3892V10.5386L19.0274 5.33535L13.3808 2.01331L3.42383 7.08941V10.5386ZM10.7726 5.43602L12.4839 6.4427L15.0006 5.23468L13.2893 4.228L10.7726 5.43602Z" fill="white"></path> </svg> 